# xmcd
#
# Track frame offsets:
#	150
#	16851
#	38097
#	51750
#	69384
#	85796
#	108038
#	134610
#	155187
#	177929
#	190259
#
# Disc length: 2776 seconds
#
# Revision: 0
# Processed by: cddbd v1.5.1PL2 Copyright (c) Steve Scherf et al.
# Submitted via: EasyCDDAExtractor 4.6.9.1
#
DISCID=8b0ad60b
DTITLE=Rodney Pyeatt - Texas Beer Joint Tour
DYEAR=2003
DGENRE=Country
TTITLE0=In Texas
TTITLE1=Suppose I Turn The Tables
TTITLE2=That's When I'm Comin' Home
TTITLE3=Where Do You Call Home
TTITLE4=How's That For A Heartache
TTITLE5=I Believed Them
TTITLE6=House of The Rising Sun
TTITLE7=Flesh and Blood
TTITLE8=How Can I Tell You Goodbye
TTITLE9=Love The Doubt Out
TTITLE10=Rock Bottom
EXTD=
EXTT0=
EXTT1=
EXTT2=
EXTT3=
EXTT4=
EXTT5=
EXTT6=
EXTT7=
EXTT8=
EXTT9=
EXTT10=
PLAYORDER=
